<svg xmlns="http://www.w3.org/2000/svg" version="1.1" xmlns:xlink="http://www.w3.org/1999/xlink" xmlns:svgjs="http://svgjs.dev/svgjs" width="1500" height="1500" viewBox="0 0 1500 1500"><rect width="1500" height="1500" fill="#ffffff"></rect><g transform="matrix(0.6666666666666666,0,0,0.6666666666666666,249.39393939393938,673.6846883246618)"><svg viewBox="0 0 396 60" data-background-color="#ffffff" preserveAspectRatio="xMidYMid meet" height="227" width="1500" xmlns="http://www.w3.org/2000/svg" xmlns:xlink="http://www.w3.org/1999/xlink"><g id="tight-bounds" transform="matrix(1,0,0,1,0.2400000000000091,0.257172029869821)"><svg viewBox="0 0 395.52 59.485655940260344" height="59.485655940260344" width="395.52"><g><svg viewBox="0 0 480.052429504186 72.19921534883721" height="59.485655940260344" width="395.52"><g transform="matrix(1,0,0,1,0,9.978328604651168)"><svg viewBox="0 0 395.52 52.24255813953488" height="52.24255813953488" width="395.52"><g id="textblocktransform"><svg viewBox="0 0 395.52 52.24255813953488" height="52.24255813953488" width="395.52" id="textblock"><g><svg viewBox="0 0 395.52 52.24255813953488" height="52.24255813953488" width="395.52"><g transform="matrix(1,0,0,1,0,0)"><svg width="395.52" viewBox="3.9 -35.8 275.18 36.349999999999994" height="52.24255813953488" data-palette-color="#2257bf"><path d="M3.9 0L3.9-35.05 13.3-35.05Q18.95-35.05 21.93-31.95 24.9-28.85 24.9-23.7L24.9-23.7 24.9-10Q24.9 0 14.3 0L14.3 0 3.9 0ZM22.1-24.2Q22.1-27.05 20.88-28.93 19.65-30.8 17.75-31.65 15.85-32.5 13.8-32.5L13.8-32.5 6.7-32.5 6.7-2.5 13.5-2.5Q17.15-2.5 19.63-3.93 22.1-5.35 22.1-9.5L22.1-9.5 22.1-24.2ZM47.85 0L43.85-12.25 32.45-12.25 28.55 0 25.6 0 36.8-35 39.45-35 50.85 0 47.85 0ZM38.1-30.65L33.25-15 43.1-15 38.1-30.65ZM60.09 0L50.04-35 53.04-35 61.99-3.45 70.94-35 73.94-35 63.94 0 60.09 0ZM98.39 0L94.14-12.4Q93.24-12.25 92.14-12.25L92.14-12.25 82.29-12.25 82.29 0 79.49 0 79.49-35 91.79-35Q96.54-35 98.87-32.1 101.19-29.2 101.19-24.3L101.19-24.3Q101.19-20.55 100.37-17.65 99.54-14.75 96.79-13.25L96.79-13.25 101.24 0 98.39 0ZM92.19-15Q94.99-15 96.37-16.5 97.74-18 98.07-19.9 98.39-21.8 98.39-24.15L98.39-24.15Q98.39-28.25 96.69-30.3 94.99-32.35 91.99-32.35L91.99-32.35 82.29-32.35 82.29-15 92.19-15ZM145.59 0L145.59-26.75 136.49 0 133.44 0 124.39-26.75 124.39 0 121.59 0 121.59-35 124.39-35 134.94-4.3 145.59-35 148.39-35 148.39 0 145.59 0ZM176.54-9.25Q176.54-4.2 173.46-1.83 170.39 0.55 166.09 0.55L166.09 0.55Q163.39 0.55 160.99-0.43 158.59-1.4 157.06-3.6 155.54-5.8 155.54-9.25L155.54-9.25 155.54-25.35Q155.54-30.5 158.36-33.15 161.19-35.8 166.14-35.8L166.14-35.8Q171.09-35.8 173.81-33 176.54-30.2 176.54-25.3L176.54-25.3 176.54-9.25ZM173.79-25.8Q173.79-29.45 171.66-31.3 169.54-33.15 166.04-33.15L166.04-33.15Q162.54-33.15 160.44-31.3 158.34-29.45 158.34-25.8L158.34-25.8 158.34-9.3Q158.34-5.75 160.51-3.93 162.69-2.1 166.04-2.1L166.04-2.1Q169.44-2.1 171.61-3.88 173.79-5.65 173.79-9.35L173.79-9.35 173.79-25.8ZM187.23 0L187.23-32.5 178.73-32.5 178.73-35 198.83-35 198.83-32.5 190.03-32.5 190.03 0 187.23 0ZM221.98-9.25Q221.98-4.2 218.91-1.83 215.83 0.55 211.53 0.55L211.53 0.55Q208.83 0.55 206.43-0.43 204.03-1.4 202.51-3.6 200.98-5.8 200.98-9.25L200.98-9.25 200.98-25.35Q200.98-30.5 203.81-33.15 206.63-35.8 211.58-35.8L211.58-35.8Q216.53-35.8 219.26-33 221.98-30.2 221.98-25.3L221.98-25.3 221.98-9.25ZM219.23-25.8Q219.23-29.45 217.11-31.3 214.98-33.15 211.48-33.15L211.48-33.15Q207.98-33.15 205.88-31.3 203.78-29.45 203.78-25.8L203.78-25.8 203.78-9.3Q203.78-5.75 205.96-3.93 208.13-2.1 211.48-2.1L211.48-2.1Q214.88-2.1 217.06-3.88 219.23-5.65 219.23-9.35L219.23-9.35 219.23-25.8ZM248.08 0L243.83-12.4Q242.93-12.25 241.83-12.25L241.83-12.25 231.98-12.25 231.98 0 229.18 0 229.18-35 241.48-35Q246.23-35 248.55-32.1 250.88-29.2 250.88-24.3L250.88-24.3Q250.88-20.55 250.05-17.65 249.23-14.75 246.48-13.25L246.48-13.25 250.93 0 248.08 0ZM241.88-15Q244.68-15 246.05-16.5 247.43-18 247.75-19.9 248.08-21.8 248.08-24.15L248.08-24.15Q248.08-28.25 246.38-30.3 244.68-32.35 241.68-32.35L241.68-32.35 231.98-32.35 231.98-15 241.88-15ZM258.18-8.9Q258.33-7.2 259.45-5.65 260.58-4.1 262.55-3.13 264.53-2.15 267.08-2.15L267.08-2.15Q270.93-2.15 273.5-3.88 276.08-5.6 276.08-9.35L276.08-9.35Q276.08-11.55 274.83-13.03 273.58-14.5 271.73-15.38 269.88-16.25 266.68-17.4L266.68-17.4Q263.23-18.6 261.15-19.63 259.08-20.65 257.65-22.4 256.23-24.15 256.23-26.9L256.23-26.9Q256.23-29.1 257.48-31.08 258.73-33.05 261.25-34.27 263.78-35.5 267.48-35.5L267.48-35.5Q269.93-35.5 271.53-35.15 273.13-34.8 274.78-34L274.78-34 273.93-31.35Q271.08-32.8 267.58-32.8L267.58-32.8Q263.73-32.8 261.43-31.2 259.13-29.6 259.13-26.75L259.13-26.75Q259.13-24.95 260.28-23.73 261.43-22.5 263.1-21.75 264.78-21 267.78-19.95L267.78-19.95Q271.43-18.7 273.68-17.63 275.93-16.55 277.5-14.58 279.08-12.6 279.08-9.6L279.08-9.6Q279.08-5 276.15-2.23 273.23 0.55 267.13 0.55L267.13 0.55Q263.43 0.55 260.8-0.83 258.18-2.2 256.8-4.38 255.43-6.55 255.33-8.9L255.33-8.9 258.18-8.9Z" opacity="1" transform="matrix(1,0,0,1,0,0)" fill="#2257bf" class="wordmark-text-0" data-fill-palette-color="primary" id="text-0"></path></svg></g></svg></g></svg></g></svg></g><g transform="matrix(1,0,0,1,407.85321415534884,0)"><svg viewBox="0 0 72.19921534883721 72.19921534883721" height="72.19921534883721" width="72.19921534883721"><g data-palette-color="#2257bf"><rect width="19.73445219534884" height="72.19921534883721" fill="#2257bf" stroke="transparent" data-fill-palette-color="accent" x="0" fill-opacity="1"></rect><rect width="19.73445219534884" height="72.19921534883721" fill="#2257bf" stroke="transparent" data-fill-palette-color="accent" x="24.06640511627907" fill-opacity="0.75"></rect><rect width="19.73445219534884" height="72.19921534883721" fill="#2257bf" stroke="transparent" data-fill-palette-color="accent" x="48.13281023255814" fill-opacity="0.5"></rect></g></svg></g></svg></g><defs></defs></svg><rect width="395.52" height="59.485655940260344" fill="none" stroke="none" visibility="hidden"></rect></g></svg></g></svg>