<svg xmlns="http://www.w3.org/2000/svg" version="1.1" xmlns:xlink="http://www.w3.org/1999/xlink" xmlns:svgjs="http://svgjs.dev/svgjs" width="128" height="128" viewBox="0 0 128 128"><g transform="matrix(0.8046875,0,0,0.8046875,12.333870967741937,31.61416361171267)"><svg viewBox="0 0 155 98" data-background-color="#ffffff" preserveAspectRatio="xMidYMid meet" height="80" width="128" xmlns="http://www.w3.org/2000/svg" xmlns:xlink="http://www.w3.org/1999/xlink"><g id="tight-bounds" transform="matrix(1,0,0,1,0.25,0.3019334532374103)"><svg viewBox="0 0 154.5 97.39613309352518" height="97.39613309352518" width="154.5"><g><svg viewBox="0 0 154.5 97.39613309352518" height="97.39613309352518" width="154.5"><g><svg viewBox="0 0 154.5 97.39613309352518" height="97.39613309352518" width="154.5"><g id="textblocktransform"><svg viewBox="0 0 154.5 97.39613309352518" height="97.39613309352518" width="154.5" id="textblock"><g><svg viewBox="0 0 154.5 97.39613309352518" height="97.39613309352518" width="154.5"><g transform="matrix(1,0,0,1,0,0)"><svg width="154.5" viewBox="3.9 -35.05 55.6 35.05" height="97.39613309352518" data-palette-color="#2257bf"><path d="M3.9 0L3.9-35.05 13.3-35.05Q18.95-35.05 21.93-31.95 24.9-28.85 24.9-23.7L24.9-23.7 24.9-10Q24.9 0 14.3 0L14.3 0 3.9 0ZM22.1-24.2Q22.1-27.05 20.88-28.93 19.65-30.8 17.75-31.65 15.85-32.5 13.8-32.5L13.8-32.5 6.7-32.5 6.7-2.5 13.5-2.5Q17.15-2.5 19.63-3.93 22.1-5.35 22.1-9.5L22.1-9.5 22.1-24.2ZM56.7 0L56.7-26.75 47.6 0 44.55 0 35.5-26.75 35.5 0 32.7 0 32.7-35 35.5-35 46.05-4.3 56.7-35 59.5-35 59.5 0 56.7 0Z" opacity="1" transform="matrix(1,0,0,1,0,0)" fill="#2257bf" class="wordmark-text-0" data-fill-palette-color="primary" id="text-0"></path></svg></g></svg></g></svg></g></svg></g></svg></g><defs></defs></svg><rect width="154.5" height="97.39613309352518" fill="none" stroke="none" visibility="hidden"></rect></g></svg></g></svg>